<svg id="圖層_1" height="512" viewBox="0 0 512 512" width="512" xmlns="http://www.w3.org/2000/svg"><path id="_x30_4" d="m204.331 281.346c-11.565-4.838-38.123-9.449-68.662-43.339-5.82-6.451-39.105-58.306-30.69-115.276 13.38-90.634 59.087-116.637 91.768-121.576 72.593-11.037 113.588 60.12 125.935 84.259 23.509 45.959 25.424 89.903 22.677 103.61-2.695 13.556-32.831 79.371-34.469 83.932-5.014 13.934-36.436 77.053-40.744 65.99-3.076-7.962-44.373-48.605-65.815-57.6z" fill="#567a3a"/><path id="_x30_3" d="m275.814 256.829c.15-.302 45.152-140.297 34.671-180.612 0 15.32-29.833 91.112-43.288 124.75-9.65-56.315-20.939-110.514-29.985-136.517 5.543-27.339 5.896-51.226 5.14-59.112-4.837 3.149-10.885 40.34-29.43 53.141-26.205 1.31-70.401-16.933-80.681-14.085.806 1.033 42.255 30.615 88.089 43.516 7.584 17.839 9.398 53.468 16.882 92.649l-38.854-30.262c-7.03-1.789-13.909 2.646-15.547 9.55-1.663 6.904 59.364 48.302 59.364 48.302 2.671 15.749 11.389 63.245 16.706 127.295 6.048 72.87 6.476 140.75 5.241 146.924-1.814 6.904 2.268 13.959 9.146 15.799 1.108.303 2.242.428 3.326.428 5.72 0 10.936-3.805 12.473-9.574 3.1-11.717.15-81.991-3.049-134.553-.629-10.483-7.129-75.743-10.204-97.639zm222.389-129.135c-11.465-26.86-48.429-15.773-55.484-14.413-23.937 4.485-115.754 32.151-136.643 138.357-16.807 85.368 20.107 111.749 24.164 120.745 2.998 6.702 99.604 3.451 157.204-78.641 18.193-25.928 38.854-100.082 10.759-166.048z" fill="#89c147"/><path id="_x30_2" d="m217.634 193.66c-10.708-48.227-72.416-125.683-157.556-108.246-47.144 9.625-91.062 109.305-30.589 213.368 50.57 86.98 148.31 73.954 160.077 70.729 12.622-3.452 47.546-88.039 28.068-175.851z" fill="#6d9d48"/><path id="_x30_1" d="m170.34 298.379c3.553-7.383 30.589-67.931 24.34-152.946-4.737 17.865-31.849 98.168-40.441 123.466-6.35-11.264-12.725-22.4-18.873-33.059-14.69-25.5-32.983-57.197-33.991-64.681 0 0-5.77-86.678-5.997-87.535-7.912-.756-21.543 60.574-21.543 60.574s-42.23-39.207-43.515-39.761c-5.241 5.846 48.151 79.572 48.151 79.572 4.183 11.137 13.128 27.415 27.163 51.831-26.003 1.89-64.706 2.973-101.594-3.478 32.479 25.449 81.235 29.405 107.062 29.405 3.679 0 6.702-.076 9.323-.176 14.74 25.625 105.147 221.607 111.774 241.588 1.814 5.393 6.854 8.819 12.246 8.819 1.361 0 2.722-.202 4.082-.655 6.753-2.268 10.406-9.574 8.164-16.328-6.981-20.937-80.883-186.356-86.351-196.636zm210.294-2.041c25.903-51.604 52.284-85.519 67.125-100.738 34.066-14.161 53.015-28.674 59.667-37.972-2.495.277-46.464 8.895-47.145 8.265-4.51-18.696-15.345-53.04-17.563-52.611-2.871.529-9.271 40.744-7.559 58.608-.906.857-2.016 2.066-3.023 3.023-14.866 14.514-35.654 40.971-57.046 77.531-13.052-21.115-31.068-74.029-34.999-76.246-6.123 7.761 16.957 96.151 20.838 101.922-5.871 11.339-11.615 23.534-17.209 36.183-3.402 7.686-21.064 53.217-21.746 55.106-14.059 39.509-29.354 90.004-29.354 123.239 0 7.13 5.77 12.9 12.9 12.9s12.9-5.771 12.9-12.9c0-30.968 29.179-118.175 29.179-118.175 4.157-11.616 16.075-41.222 19.074-48.151 20.082-4.561 134.804-62.136 137.626-72.417-4.358-3.023-92.874 34.445-123.665 42.433z" fill="#add485"/></svg>