<svg id="Layer_1" viewBox="0 0 1000 1000" xmlns="http://www.w3.org/2000/svg" data-name="Layer 1"><path d="m421.91 448.94c-.09.5-.17 1-.26 1.5a0 0 0 0 0 0 0q-2.24 13.11-5.26 26.54a515 515 0 0 1 -17.17 59.34 2.25 2.25 0 0 1 -.08.24c-29.7 83.51-79.61 156.91-148.53 218.47q-8.91 8-18.26 15.67a615.6 615.6 0 0 1 -57.57 42.1c-9.7 6.27-19.1 11.95-28.06 17.08h-.08a562.38 562.38 0 0 1 -52.3 26.48 13.1 13.1 0 0 1 -2.41.8 12.89 12.89 0 0 1 -3.13.38 13.78 13.78 0 0 1 -5.57-26.39 521.87 521.87 0 0 0 50.07-25.61 595.34 595.34 0 0 0 97-69.83 545.15 545.15 0 0 0 52-52.79 503.1 503.1 0 0 0 53.56-75.19 479.88 479.88 0 0 0 23.78-46.62q6.92-15.56 12.89-32.14c.21-.56.42-1.12.61-1.69.61-1.71 1.21-3.43 1.79-5.14a491 491 0 0 0 19-73.57 503.9 503.9 0 0 0 7-60.48 531.12 531.12 0 0 0 -8.11-125.66 13.77 13.77 0 1 1 27.08-5c1.81 9.76 3.49 20.32 4.92 31.56a558.91 558.91 0 0 1 4.45 67.3 540.14 540.14 0 0 1 -7.36 92.65z" fill="#006838"/><path d="m707.45 340.44q-9.51 15.56-19.45 30.85-12.45 19.26-25.51 38.08-13.74 19.85-28.19 39.2l-.05.07c-.23.33-.48.66-.73 1v.06q-12.9 17.31-26.37 34.2-16.5 20.79-33.8 40.91-29 33.72-60 65.56-3.2 3.32-6.46 6.6c-.18.19-.35.37-.53.54q-10.73 10.86-21.7 21.48-16.6 16.01-33.66 31.54a1406.12 1406.12 0 0 1 -157.67 123.72 1415.64 1415.64 0 0 1 -121.5 73.51q-23.25 12.51-47 24.21-12.74 6.25-25.63 12.3a13.8 13.8 0 0 1 -5.83 1.3 13.3 13.3 0 0 1 -3.26-.41 13.76 13.76 0 0 1 -2.58-25.85l4.43-2.09q27.71-13.07 54.71-27.28h.08q16.9-8.89 33.52-18.22 46.22-25.94 90.18-55.24a1377.62 1377.62 0 0 0 163.24-127.48c.16-.16.34-.32.53-.48q15.84-14.41 31.27-29.35 9.17-8.88 18.13-17.91 15.88-15.93 31.17-32.36a1381.35 1381.35 0 0 0 94.28-112.54q13.89-18.5 27.18-37.47c2-2.84 4-5.68 5.94-8.54l.42-.61q21.51-31.23 41.33-63.69a13.78 13.78 0 0 1 23.51 14.37z" fill="#006838"/><path d="m794.5 542.82q-46.23 36.61-94.42 70.62l-.92.64q-10.05 7.08-20.18 14.06-18.39 12.66-37 24.92-40.47 26.6-81.98 51.3l-1.27.75q-11.79 7-23.68 13.86-20.93 12.03-42.11 23.65-45.7 25-92.51 47.7a2134.35 2134.35 0 0 1 -231.78 95.94q-31.9 11.09-64.07 21.1a14 14 0 0 1 -4.11.63 13.78 13.78 0 0 1 -4.09-26.93q14.24-4.44 28.41-9.07 17.9-5.85 35.69-12a2107.32 2107.32 0 0 0 227.91-94.39q78.45-38 153.75-82.64 24.76-14.65 49.13-30 45.32-28.53 89.19-59.35 21.45-15.09 42.54-30.69 27.53-20.36 54.37-41.62a13.77 13.77 0 1 1 17.1 21.59z" fill="#006838"/><path d="m804.63 306.89c.35 11.19-14.66 19.51-22.52 24.79-39.83 26.74-27.43 63.8-68.24 113.46a107.47 107.47 0 0 1 -11.87 12.66c-12.94 11.37-20.3 9.33-49.06 38.95-28.52 29.4-28.86 39.21-64.13 78.69-20 22.43-34.43 38.52-57.55 55.93-30 22.58-35.43 17.81-71.64 42.52-34.78 23.73-36.36 32.66-69.13 54.57-29.73 19.89-54.23 29.8-66.86 35.25-7.71 3.32-17.88 6.45-30.27 10.54a1406.12 1406.12 0 0 0 157.64-123.72l74.74-35.53a13.78 13.78 0 0 0 -11.84-24.89l-.56.27q31-31.82 60-65.56l53.76-18.68a13.77 13.77 0 1 0 -9-26l-10.92 3.78q13.46-16.89 26.37-34.2v-.06a12 12 0 0 0 .73-1l.05-.07q14.45-19.35 28.19-39.2l56.61-19.76a13.77 13.77 0 1 0 -9.07-26l-22 7.69q9.9-15.29 19.41-30.85a13.78 13.78 0 0 0 -23.51-14.37q-19.8 32.44-41.33 63.69l-.42.61c-2 2.86-3.94 5.7-5.94 8.54l-.2-19.92a13.77 13.77 0 0 0 -13.77-13.63h-.14a13.77 13.77 0 0 0 -13.63 13.91l.56 57.11a1381.35 1381.35 0 0 1 -94.28 112.54l5.79-54.34a13.77 13.77 0 1 0 -27.38-2.93l-9.58 89.63q-9 9-18.13 17.91-15.42 14.92-31.27 29.35c-.19.16-.37.32-.53.48a1377.62 1377.62 0 0 1 -163.29 127.4c17.8-21.15 36.7-41.39 53.63-63.24 25.74-33.21 32.95-46.21 53.68-56.39 11.76-5.76 23.35-8.4 29.8-20 6.9-12.43.84-22.41.69-39.11-.22-23.44 11.48-27.63 31.84-70.71 21.67-45.87 17.22-59.74 33.55-68.56 21-11.33 34.83 8.13 55-1.35a29.55 29.55 0 0 0 2.68-1.43c16.86-10.2 16.8-35.85 41.1-120.8 9-31.34 13.28-42.89 22.3-56.17 7.71-11.34 25-36.81 58.34-46 5.28-1.46 31-8.08 58.44 3 15.49 6.24 26.43 17.16 48.32 39 15.82 15.79 11.69 15 27.75 30.71 11.15 10.73 16.87 14.71 17.09 21.49z" fill="#8dc63f"/><path d="m270.42 756.45c-3.7 4.41-7.37 8.86-10.95 13.37-5.14 6.46-10.88 13.51-17.32 21.2-6 7.2-18.65 7.38-26 15.7 31-16.64 57-25.82 77.15-32.47" fill="none"/><path d="m924.56 503.27c-5.06 22.49-19.7 37.25-49 66.76-44.29 44.57-60.9 41.8-81.31 74.69-21.78 35.08-9 48.13-27.07 63.44-37.59 31.84-100.73-18.23-136.79 13.28-21.11 18.43-7.16 42.25-33.11 64.7-21 18.19-48.67 18.55-72.77 18.87-60.73.8-70.83-24.35-103.93-16.16-40 9.9-35.92 49.29-83.93 80.26-40.9 26.39-85.21 24.47-122.23 22.84a288.55 288.55 0 0 1 -45.77-5.69 2134.35 2134.35 0 0 0 231.78-95.94q46.8-22.68 92.51-47.7l45.93 4.38c.45 0 .89.06 1.33.06a13.77 13.77 0 0 0 1.29-27.48l-6.49-.58q11.9-6.84 23.68-13.86a10.85 10.85 0 0 0 1.27-.75q41.5-24.71 81.92-51.27l81.86 5.88h1a13.77 13.77 0 0 0 1-27.51l-46.79-3.4q10.13-7 20.18-14.06c.32-.2.62-.41.92-.64q48.17-34 94.42-70.62a13.77 13.77 0 1 0 -17.1-21.59q-26.79 21.3-54.36 41.67l13.15-31.71a13.77 13.77 0 1 0 -25.44-10.56l-30.25 73q-43.85 30.81-89.19 59.35l14.58-25.25a13.77 13.77 0 0 0 -23.85-13.82l-39.86 69q-75.14 44.58-153.72 82.68a2107.32 2107.32 0 0 1 -227.91 94.39 39.32 39.32 0 0 1 7.67-9q1.84-1.62 3.65-3.17a1415.64 1415.64 0 0 0 121.5-73.51c12.39-4.09 22.56-7.22 30.27-10.54 12.63-5.45 37.13-15.36 66.86-35.25 32.77-21.91 34.35-30.84 69.13-54.57 36.21-24.71 41.65-19.94 71.64-42.52 23.12-17.41 37.51-33.5 57.55-55.93 35.27-39.48 35.61-49.29 64.13-78.69 28.76-29.62 36.09-27.58 49.09-38.95 56 6.87 79.92-5 91-19 10.24-12.86 6.66-23.75 19.55-33 16.41-11.74 42.5-8.67 64.49-2.67a243.17 243.17 0 0 1 39.9 15c10.81 71 7.62 85.14 7.62 85.14z" fill="#39b54a"/><path d="m168.65 886.26c-3.88-.79-7.67-1.66-11.4-2.58-2.71-.66-5.38-1.37-8-2.1-1.74-.48-3.45-1-5.15-1.47s-3.15-1-4.7-1.43" fill="none"/><path d="m509.9 280c-11.58 24.7 6.34 50 15.8 82.21 5.11 17.39 9.16 41.62 5.63 73.39a29.55 29.55 0 0 1 -2.68 1.43c-20.21 9.48-34-10-55 1.35-16.33 8.82-11.88 22.69-33.55 68.56-20.36 43.12-32.07 47.31-31.84 70.73.15 16.7 6.21 26.68-.69 39.11-6.45 11.62-18 14.26-29.8 20-20.77 10.22-27.98 23.22-53.72 56.43-16.93 21.85-35.83 42.09-53.63 63.24q-43.94 29.28-90.18 55.24l-5.46 1.14a615.6 615.6 0 0 0 57.57-42.1q9.34-7.71 18.26-15.67c68.92-61.56 118.83-135 148.53-218.47a2.25 2.25 0 0 0 .08-.24l39-42.35a13.78 13.78 0 1 0 -20.27-18.66l-1.57 1.66q3-13.42 5.26-26.54a0 0 0 0 1 0 0c.11-.5.2-1 .26-1.5a540.14 540.14 0 0 0 7.43-92.6l26.81-72.36a13.78 13.78 0 0 0 -25.84-9.57l-5.41 14.57c-1.43-11.24-3.11-21.8-4.92-31.56a13.77 13.77 0 1 0 -27.08 5 531.12 531.12 0 0 1 8.11 125.73l-11.19-30.26a13.78 13.78 0 0 0 -25.81 9.56l30 81.18a491 491 0 0 1 -19 73.57 13.77 13.77 0 0 0 -2.4 6.83q-6 16.59-12.89 32.14l-4.48-54.3a13.77 13.77 0 1 0 -27.45 2.26l8.15 98.66a503.1 503.1 0 0 1 -53.59 75.19l4.79-11.41a13.77 13.77 0 1 0 -25.39-10.66l-31.45 74.86a595.34 595.34 0 0 1 -97 69.83c2.23-30.71 11.53-52.09 22.82-67.52 19.89-27.21 44.72-34.25 74.48-83.34 16.12-26.57 41.75-68.89 37.77-121-3.7-48.38-29.74-62.87-18.75-90.4 13.1-32.83 54.38-22.87 71.3-56.28 17.35-34.26-19-58.75-10-114.84 3.18-19.84 17.93-42.07 47.43-86.53 42.59-64.2 64.39-96.24 87.45-93.56 4.8.56 12 2.79 38.42 39.79 39.15 54.92 65.77 92.26 52.53 119.87-7.29 15.19-19.05 11.61-26.84 28.19z" fill="#39b54a"/><path d="m132.79 821.93c0-5.71.13-11.14.5-16.31" fill="none"/><path d="m162.41 825c-12.52 2.63-26.75 5.69-41 8.47" fill="none"/><path d="m180.24 811.69c19.95-4.13 34.33-6.74 35.24-4.46 2.42 6.16-16.72 17.35-43.65 40.53" fill="none"/><g fill="#006838"><path d="m456.14 284-26.8 72.35-.84 2.27a13.77 13.77 0 0 1 -25.83-9.56l22.22-60 5.41-14.62a13.78 13.78 0 0 1 25.84 9.56z"/><path d="m421.91 448.94c-.09.5-.17 1-.26 1.5a0 0 0 0 0 0 0 13.77 13.77 0 0 1 -8.65 9.86 13.62 13.62 0 0 1 -4.78.87 13.78 13.78 0 0 1 -12.92-9l-1.3-3.52-30-81.18a13.78 13.78 0 0 1 25.84-9.56l11.16 30.26 20.14 54.44a13.6 13.6 0 0 1 .77 6.33z"/><path d="m438.18 494-39 42.35-2.77 3a13.78 13.78 0 0 1 -21.41-17.13 15.11 15.11 0 0 1 1.19-1.48l40.19-43.74 1.53-1.67a13.78 13.78 0 1 1 20.27 18.67z"/><path d="m351.12 624.85c-.39 0-.77 0-1.16 0a13.76 13.76 0 0 1 -13.7-12.64l-.36-4.45-8.15-98.66a13.77 13.77 0 1 1 27.45-2.26l4.48 54.3 4 48.81a13.76 13.76 0 0 1 -12.56 14.9z"/><path d="m287.13 671.59-4.79 11.41-28.17 67.08a13.53 13.53 0 0 1 -3.57 5 13.88 13.88 0 0 1 -9.14 3.45 13.57 13.57 0 0 1 -5.32-1.08 13.77 13.77 0 0 1 -7.37-18l1.52-3.62 31.45-74.86a13.77 13.77 0 1 1 25.39 10.66z"/><path d="m520.58 494.58-5.79 54.34-4.28 40.08a12.83 12.83 0 0 1 -.67 3 13.7 13.7 0 0 1 -3 4.94c-.18.19-.35.37-.53.54a13.8 13.8 0 0 1 -9.52 3.83c-.49 0-1 0-1.48-.08a13.92 13.92 0 0 1 -3.3-.77 13.76 13.76 0 0 1 -8.94-14.39l.51-4.81 9.58-89.63a13.77 13.77 0 1 1 27.38 2.93z"/><path d="m636.66 440.78a13.69 13.69 0 0 1 -2.32 7.79l-.05.07c-.23.33-.48.66-.73 1v.06a13.7 13.7 0 0 1 -10.49 5h-.14a13.75 13.75 0 0 1 -13.76-13.63v-4.68l-.56-57.11a13.77 13.77 0 0 1 13.63-13.91h.14a13.77 13.77 0 0 1 13.67 13.63l.2 19.92z"/><path d="m719.14 389.61-56.61 19.76-4.21 1.47a13.78 13.78 0 0 1 -16.13-20.47l.42-.61a13.77 13.77 0 0 1 6.63-4.93l38.76-13.54 22-7.69a13.77 13.77 0 1 1 9.07 26z"/><path d="m627.1 506.12-53.76 18.68-3.49 1.2a13.77 13.77 0 0 1 -9-26l46.33-16.1 10.92-3.78a13.77 13.77 0 1 1 9 26z"/><path d="m525.74 615-74.74 35.53-1.85.87a13.77 13.77 0 0 1 -15.46-22.4c.16-.16.34-.32.53-.48a13.73 13.73 0 0 1 3.09-2l54.74-26 17.79-8.52 3.5-1.66.56-.27a13.78 13.78 0 0 1 11.84 24.93z"/><path d="m736.18 531.14-13.18 31.71-18.64 45a13.64 13.64 0 0 1 -4.31 5.63l-.92.64a13.76 13.76 0 0 1 -20.13-16.86l1.54-3.72 30.25-73a13.77 13.77 0 1 1 25.44 10.56z"/><path d="m738.47 646.3a13.79 13.79 0 0 1 -13.73 12.78c-.33 0-.67 0-1 0l-81.83-5.95-4.65-.34a13.77 13.77 0 1 1 2-27.46l39.69 2.88 46.79 3.4a13.77 13.77 0 0 1 12.73 14.69z"/><path d="m553.9 734.6a13.77 13.77 0 0 1 -13.7 12.47c-.44 0-.88 0-1.33-.06l-45.93-4.39-4.19-.4a13.77 13.77 0 1 1 2.62-27.42l43.63 4.2 6.46.62a13.78 13.78 0 0 1 12.44 14.98z"/><path d="m605.88 627.64-14.58 25.25-27.1 47a13.59 13.59 0 0 1 -4.22 4.52 10.85 10.85 0 0 1 -1.27.75 13.77 13.77 0 0 1 -18.37-19.05l1.83-3.16 39.86-69a13.77 13.77 0 0 1 23.85 13.78z"/><path d="m323.77 848.26h-.19l-54.69-.73a13.77 13.77 0 1 1 .37-27.54l54.69.73a13.77 13.77 0 0 1 -.18 27.54z"/></g></svg>