<svg fill="none" height="512" viewBox="0 0 128 128" width="512" xmlns="http://www.w3.org/2000/svg"><path d="m24.9675 61.7193c6.6233 7.0466 12.1476 12.6666 10.7288 32.0283 6.3374.5872 19.3691.7273 20.7976-3.4096 1.4284-4.1369 1.1574-13.3654 5.4117-20.6442 2.7425-4.6922 8.6339-6.8764 9.6561-11.8481s-4.5358-6.9043-8.8197-4.2316c1.572-3.2928 11.8921-4.468 10.4307-13.7176-1.3282-8.4065-8.1622-6.9635-9.3068-7.7831 1.514-1.3678 5.5754-8.1754.7955-14.1783-4.7798-6.0029-12.8505-1.7526-15.1744-.1628-1.0702-2.3759-5.1638-5.9443-9.2856-5.2899-4.062.6449-6.809 5.7516-7.176 7.7084-2.8917-1.0762-5.0097-.1019-6.3868 2.4189-1.7073 3.1252-.0502 6.2777 1.4391 7.2163-2.7603-.7264-7.296 1.1037-8.0373 4.6542-.685 3.2812 2.9043 6.4208 4.5096 7.303-1.2698.1017-4.5544 2.5287-3.7448 4.7467 1.3352 3.6574 6.3412 4.3379 9.199 6.7329-4.9252-1.944-11.0051 2.1065-5.0367 8.4565z" fill="#83aa00"/><path d="m32.1441 102.169c-.7493-9.4584.2299-23.9199 17.8702-47.0949 3.3588 24.5214 15.1817 25.4815 15.7276 46.5589.3183 12.289-5.5705 19.917-15.0063 20.665-10.5802.838-17.6996-8.868-18.5915-20.129z" fill="#cbd598"/><path d="m55.5111 56.7584c5.1266 8.4681 9.4576 15.2734 3.9048 34.3536 6.219 1.9404 19.2352 4.862 21.5481 1.0255 2.313-3.8365 4.0114-13.133 9.8239-19.5118 3.747-4.1121 10.1111-5.0413 12.1951-9.8003 2.085-4.759-3.0667-7.88-7.9258-6.1187 2.2765-2.9609 11.9248-6.025 12.9388-13.557 1.162-8.6338-7.642-8.7406-9.8544-7.9435 3.4794-2.7858 3.8214-11.6554 1.6089-14.8821-3.4189-4.9868-7.6473-3.4233-10.313-2.3277 0-4.6494-4.4239-9.18803-8.69-9.41267-4.2041-.22137-7.521 6.43967-8.306 8.32037-1.7773-1.2459-5.6211-3.1822-7.627-.724-2.006 2.4583-.6732 8.0562.6174 9.3138-2.6083-1.3164-7.0969-.22-9.0395 2.9439-2.0466 3.3333 1.5371 7.0477 2.9558 8.2735-1.2929-.1692-4.8642 1.5379-4.762 3.9526.1811 4.2781 5.4223 5.6962 7.7721 8.7038-4.5157-2.9974-11.4669-.2401-6.8472 7.3907z" fill="#83aa00"/><path d="m91.2214 102.715c1.4364-9.606 1.463-24.4427-14.9052-49.3597-5.1703 24.8013-17.3112 24.9425-19.3648 46.4266-1.1973 12.5271 4.2745 20.7331 13.8567 22.1661 10.7444 1.607 18.7032-7.798 20.4133-19.233z" fill="#cbd598"/><path d="m86.5219 58.5868c-7.4583 7.7663-13.676 13.9574-12.3277 35.5309-7.0627.578-21.5734.5783-23.1144-4.0446-1.5409-4.6229-1.1289-14.8942-5.7786-23.049-2.9973-5.2568-9.5305-7.7591-10.6091-13.3065-1.0787-5.5475 5.1324-7.6328 9.8699-4.606-1.7107-3.6848-13.1867-5.1166-11.4491-15.3972 1.5792-9.3436 9.1706-7.6553 10.4548-8.5542-1.6694-1.541-6.1098-9.1687-.7164-15.795 5.3933-6.62626 14.3282-1.79784 16.8964 0 1.22-2.6325 5.8202-6.55647 10.4015-5.77868 4.5147.7665 7.5122 6.48488 7.8974 8.66798 2.183-.8989 6.0555.9127 7.1685 3.8987.9702 2.6028-.1058 5.8605-1.7751 6.8878 3.0819-.7758 7.5847 1.4571 8.8928 5.2778 1.3781 4.0254-3.3102 7.1139-5.108 8.077 1.4125.1284 4.7963 2.791 4.1126 5.3294-1.2113 4.4974-7.1119 4.754-10.3222 7.3864 5.5067-2.1056 12.2275 2.4767 5.5067 9.4752z" fill="#97be11"/><path d="m41.3474 100.537c0-10.5645 2.3583-26.53 23.9756-50.702 1.5721 27.5127 14.6105 29.6178 13.3634 53.06-.7272 13.669-7.934 21.618-18.473 21.618-11.8172 0-18.866-11.399-18.866-23.976z" fill="#dfe9ac"/></svg>