<svg width="48" height="48" viewBox="0 0 48 48" fill="none" xmlns="http://www.w3.org/2000/svg">
<path d="M44.118 26.1189C45.2898 24.9471 45.2898 23.0439 44.118 21.8721L29.118 6.87207C27.9461 5.7002 26.043 5.7002 24.8711 6.87207C23.6992 8.04395 23.6992 9.94707 24.8711 11.1189L37.7523 24.0002L24.8805 36.8814C23.7086 38.0533 23.7086 39.9564 24.8805 41.1283C26.0523 42.3002 27.9555 42.3002 29.1273 41.1283L44.1273 26.1283L44.118 26.1189ZM11.118 41.1189L26.118 26.1189C27.2898 24.9471 27.2898 23.0439 26.118 21.8721L11.118 6.87207C9.94609 5.7002 8.04297 5.7002 6.87109 6.87207C5.69922 8.04395 5.69922 9.94707 6.87109 11.1189L19.7523 24.0002L6.88047 36.8814C5.70859 38.0533 5.70859 39.9564 6.88047 41.1283C8.05234 42.3002 9.95547 42.3002 11.1273 41.1283L11.118 41.1189Z" fill="#10B981"/>
</svg>
