<svg width="20" height="20" viewBox="0 0 20 20" fill="none" xmlns="http://www.w3.org/2000/svg">
<g clip-path="url(#clip0_1534_6728)">
<path d="M1.66667 17.5V2.5C1.66667 2.27899 1.75446 2.06702 1.91074 1.91074C2.06702 1.75446 2.27899 1.66667 2.5 1.66667H6.66667V0H2.5C1.83696 0 1.20107 0.263392 0.732233 0.732233C0.263392 1.20107 0 1.83696 0 2.5L0 17.5C0 18.163 0.263392 18.7989 0.732233 19.2678C1.20107 19.7366 1.83696 20 2.5 20H6.66667V18.3333H2.5C2.27899 18.3333 2.06702 18.2455 1.91074 18.0893C1.75446 17.933 1.66667 17.721 1.66667 17.5Z" fill="white"/>
<path d="M19.2685 8.23207L15.4468 4.4104L14.2685 5.58873L17.8218 9.14207L4.16602 9.16623V10.8329L17.8685 10.8087L14.2668 14.4104L15.4452 15.5887L19.2668 11.7671C19.7357 11.2985 19.9993 10.6628 19.9996 9.99991C20 9.337 19.737 8.70111 19.2685 8.23207Z" fill="white"/>
</g>
<defs>
<clipPath id="clip0_1534_6728">
<rect width="20" height="20" fill="white"/>
</clipPath>
</defs>
</svg>
