<svg width="20" height="20" viewBox="0 0 20 20" fill="none" xmlns="http://www.w3.org/2000/svg">
<g clip-path="url(#clip0_310_15390)">
<path d="M11.115 0.702127C10.809 0.426657 10.4118 0.274231 10 0.274231C9.58824 0.274231 9.19105 0.426657 8.885 0.702127L0 8.69879V17.3655C0 18.0727 0.280952 18.751 0.781049 19.2511C1.28115 19.7512 1.95942 20.0321 2.66667 20.0321H17.3333C18.0406 20.0321 18.7189 19.7512 19.219 19.2511C19.719 18.751 20 18.0727 20 17.3655V8.69879L11.115 0.702127ZM12.5 18.363H7.5V14.1746C7.5 13.5116 7.76339 12.8757 8.23223 12.4069C8.70107 11.938 9.33696 11.6746 10 11.6746C10.663 11.6746 11.2989 11.938 11.7678 12.4069C12.2366 12.8757 12.5 13.5116 12.5 14.1746V18.363ZM18.3333 17.363C18.3333 17.6282 18.228 17.8825 18.0404 18.0701C17.8529 18.2576 17.5985 18.363 17.3333 18.363H14.1667V14.1746C14.1667 13.0696 13.7277 12.0098 12.9463 11.2283C12.1649 10.4469 11.1051 10.008 10 10.008C8.89493 10.008 7.83512 10.4469 7.05372 11.2283C6.27232 12.0098 5.83333 13.0696 5.83333 14.1746V18.363H2.66667C2.40145 18.363 2.1471 18.2576 1.95956 18.0701C1.77202 17.8825 1.66667 17.6282 1.66667 17.363V9.44046L10 1.94046L18.3333 9.44046V17.363Z" fill="#10B981"/>
</g>
<defs>
<clipPath id="clip0_310_15390">
<rect width="20" height="20" fill="white" transform="translate(0 0.00787354)"/>
</clipPath>
</defs>
</svg>
