<svg width="20" height="20" viewBox="0 0 20 20" fill="none" xmlns="http://www.w3.org/2000/svg">
<g clip-path="url(#clip0_310_15414)">
<path d="M19.3711 0.63927C19.1342 0.400242 18.8443 0.220494 18.5249 0.114643C18.2054 0.00879216 17.8655 -0.0201729 17.5328 0.0301033C12.5834 0.811809 7.99279 3.0927 4.38029 6.5651C3.74763 7.20132 3.25441 7.96231 2.93202 8.79963C2.60964 9.63694 2.46516 10.5322 2.5078 11.4284C2.56696 12.7285 3.0233 13.9791 3.81529 15.0118L0.0361328 18.7934L1.21446 19.9718L4.99279 16.1934C6.08783 17.0469 7.43777 17.508 8.82612 17.5026C9.74796 17.4985 10.6594 17.3079 11.5057 16.9422C12.3519 16.5766 13.1155 16.0435 13.7503 15.3751C17.0555 11.7783 19.2228 7.28423 19.9794 2.45844C20.028 2.12874 19.9983 1.79223 19.8926 1.47618C19.7869 1.16013 19.6083 0.873412 19.3711 0.63927V0.63927ZM4.17279 11.3476C4.14102 10.6832 4.24798 10.0194 4.48687 9.39859C4.72575 8.77777 5.09132 8.21352 5.56029 7.74177C5.92113 7.3801 6.29196 7.04594 6.66696 6.7251V12.1626L5.00863 13.8209C4.5033 13.0913 4.21363 12.2342 4.17279 11.3476V11.3476ZM12.5453 14.2234C11.7517 15.0884 10.6754 15.6416 9.51012 15.7833C8.34488 15.9251 7.1673 15.6462 6.18946 14.9968L10.3453 10.8409H15.1344C14.3937 12.057 13.5258 13.1909 12.5453 14.2234V14.2234ZM18.3278 2.22344C17.9332 4.64248 17.1699 6.98668 16.0644 9.17427H12.012L14.9644 6.22177L13.7861 5.04344L8.33362 10.4959V5.43844C11.1711 3.5175 14.3916 2.23495 17.7728 1.67927C17.7971 1.67595 17.8216 1.67428 17.8461 1.67427C17.9107 1.67418 17.9746 1.68687 18.0343 1.71161C18.0939 1.73635 18.1481 1.77266 18.1936 1.81844C18.2462 1.87011 18.2859 1.93355 18.3092 2.00353C18.3325 2.0735 18.3389 2.14802 18.3278 2.22094V2.22344Z" fill="#B0B0B0"/>
</g>
<defs>
<clipPath id="clip0_310_15414">
<rect width="20" height="20" fill="white" transform="translate(0 0.00787354)"/>
</clipPath>
</defs>
</svg>
