<svg width="20" height="20" viewBox="0 0 20 20" fill="none" xmlns="http://www.w3.org/2000/svg">
<g clip-path="url(#clip0_310_15462)">
<path d="M0.833252 20.0079H19.1666V2.50787C19.1666 1.84483 18.9032 1.20895 18.4344 0.740107C17.9655 0.271266 17.3296 0.00787354 16.6666 0.00787354L3.33325 0.00787354C2.67021 0.00787354 2.03433 0.271266 1.56548 0.740107C1.09664 1.20895 0.833252 1.84483 0.833252 2.50787V20.0079ZM2.49992 2.50787C2.49992 2.28686 2.58772 2.0749 2.744 1.91862C2.90028 1.76234 3.11224 1.67454 3.33325 1.67454H16.6666C16.8876 1.67454 17.0996 1.76234 17.2558 1.91862C17.4121 2.0749 17.4999 2.28686 17.4999 2.50787V18.3412H2.49992V2.50787ZM4.16658 8.34121H15.8333V3.34121H4.16658V8.34121ZM5.83325 5.00787H14.1666V6.67454H5.83325V5.00787ZM4.16658 10.8412H5.83325V12.5079H4.16658V10.8412ZM7.49992 10.8412H9.16658V12.5079H7.49992V10.8412ZM12.4999 10.8412V12.5079H10.8333V10.8412H12.4999ZM4.16658 14.1745H5.83325V15.8412H4.16658V14.1745ZM7.49992 14.1745H9.16658V15.8412H7.49992V14.1745ZM14.1666 10.8412H15.8333V12.5079H14.1666V10.8412ZM10.8333 14.1745H15.8333V15.8412H10.8333V14.1745Z" fill="#B0B0B0"/>
</g>
<defs>
<clipPath id="clip0_310_15462">
<rect width="20" height="20" fill="white" transform="translate(0 0.00787354)"/>
</clipPath>
</defs>
</svg>
