<svg width="23" height="18" viewBox="0 0 23 18" fill="none" xmlns="http://www.w3.org/2000/svg">
<path d="M0.518267 7.94104C-0.172756 8.52675 -0.172756 9.47794 0.518267 10.0636L9.36336 17.5607C10.0544 18.1464 11.1766 18.1464 11.8676 17.5607C12.5586 16.975 12.5586 16.0238 11.8676 15.4381L4.2719 9L11.8621 2.56189C12.5531 1.97618 12.5531 1.02499 11.8621 0.439282C11.1711 -0.146427 10.0489 -0.146427 9.35783 0.439282L0.512739 7.93635L0.518267 7.94104ZM19.9775 0.443967L11.1324 7.94104C10.4414 8.52675 10.4414 9.47794 11.1324 10.0636L19.9775 17.5607C20.6685 18.1464 21.7907 18.1464 22.4817 17.5607C23.1728 16.975 23.1728 16.0238 22.4817 15.4381L14.886 9L22.4762 2.56189C23.1672 1.97618 23.1672 1.02499 22.4762 0.439282C21.7852 -0.146427 20.663 -0.146427 19.9719 0.439282L19.9775 0.443967Z" fill="#E7E7E7"/>
</svg>
