<svg width="47" height="49" viewBox="0 0 47 49" fill="none" xmlns="http://www.w3.org/2000/svg">
<path d="M23.5 0C10.5215 0 0 10.9692 0 24.5C0 38.0308 10.5215 49 23.5 49C36.4785 49 47 38.0308 47 24.5C47 10.9692 36.4829 0 23.5 0ZM24.0046 40.9767V40.9858H22.9998V40.9767C15.4093 40.7022 9.33243 34.1975 9.33243 26.2154C13.2462 26.2154 16.787 27.8667 19.3493 30.5427C21.0649 32.3312 22.3417 34.5726 22.9954 37.0839V27.7523C20.455 27.6243 18.1647 26.499 16.4798 24.7379C14.6853 22.8715 13.5796 20.2871 13.5796 17.4373C17.976 17.4373 21.7055 20.4243 22.9998 24.5595V18.5717C21.6133 18.4528 20.3673 17.8124 19.4415 16.8472C18.406 15.7676 17.7654 14.2764 17.7654 12.6297C20.0996 12.6297 22.1135 14.0889 22.9998 16.1839V12.2546C22.2188 10.928 22.3812 9.16692 23.4868 8.01876C24.1318 8.69119 24.4565 9.57403 24.4565 10.4614C24.4565 11.0653 24.3073 11.6691 24.0046 12.2043V16.1153C24.9084 14.0614 26.896 12.6342 29.2083 12.6342C29.2083 14.281 28.5677 15.7722 27.5322 16.8518C26.6108 17.8124 25.3779 18.4436 24.0046 18.5763V24.468C25.3252 20.3831 29.0284 17.4464 33.3897 17.4464C33.3897 20.3008 32.2796 22.8807 30.4894 24.747C28.809 26.499 26.5318 27.6243 24.0046 27.7615V37.0931C24.6627 34.5818 25.9395 32.3404 27.6507 30.5518C30.213 27.8804 33.7538 26.2245 37.6676 26.2245C37.6676 34.1975 31.5951 40.7022 24.0046 40.9767Z" fill="white"/>
</svg>
