<svg width="48" height="48" viewBox="0 0 48 48" fill="none" xmlns="http://www.w3.org/2000/svg">
<path d="M1.0816 21.1761C-0.360534 22.738 -0.360534 25.2745 1.0816 26.8364L19.5409 46.8286C20.9831 48.3905 23.3251 48.3905 24.7672 46.8286C26.2093 45.2667 26.2093 42.7302 24.7672 41.1683L8.91527 24L24.7557 6.83171C26.1978 5.26982 26.1978 2.73331 24.7557 1.17142C23.3135 -0.390472 20.9715 -0.390472 19.5294 1.17142L1.07006 21.1636L1.0816 21.1761ZM41.6921 1.18391L23.2328 21.1761C21.7906 22.738 21.7906 25.2745 23.2328 26.8364L41.6921 46.8286C43.1342 48.3905 45.4763 48.3905 46.9184 46.8286C48.3605 45.2667 48.3605 42.7302 46.9184 41.1683L31.0665 24L46.9069 6.83171C48.349 5.26982 48.349 2.73331 46.9069 1.17142C45.4647 -0.390472 43.1227 -0.390472 41.6806 1.17142L41.6921 1.18391Z" fill="#10B981"/>
</svg>
